<svg width="58" height="58" viewBox="0 0 58 58" fill="none" xmlns="http://www.w3.org/2000/svg">
<path d="M37.4583 33.8333H35.5492L34.8725 33.1808C37.3229 30.339 38.6696 26.7107 38.6667 22.9583C38.6667 19.8515 37.7454 16.8145 36.0193 14.2313C34.2933 11.648 31.84 9.63466 28.9697 8.44573C26.0993 7.25681 22.9409 6.94573 19.8938 7.55184C16.8467 8.15795 14.0477 9.65402 11.8509 11.8509C9.65402 14.0477 8.15795 16.8467 7.55184 19.8938C6.94573 22.9409 7.25681 26.0993 8.44573 28.9697C9.63466 31.84 11.648 34.2933 14.2313 36.0193C16.8145 37.7454 19.8515 38.6667 22.9583 38.6667C26.8492 38.6667 30.4258 37.2408 33.1808 34.8725L33.8333 35.5492V37.4583L45.9167 49.5175L49.5175 45.9167L37.4583 33.8333ZM22.9583 33.8333C16.9408 33.8333 12.0833 28.9758 12.0833 22.9583C12.0833 16.9408 16.9408 12.0833 22.9583 12.0833C28.9758 12.0833 33.8333 16.9408 33.8333 22.9583C33.8333 28.9758 28.9758 33.8333 22.9583 33.8333Z" fill="#21002E"/>
</svg>
